<?xml version="1.0" standalone="no"?><!DOCTYPE svg PUBLIC "-//W3C//DTD SVG 1.1//EN" "http://www.w3.org/Graphics/SVG/1.1/DTD/svg11.dtd"><svg t="1672833390304" class="icon" viewBox="0 0 1024 1024" version="1.1" xmlns="http://www.w3.org/2000/svg" p-id="2669" xmlns:xlink="http://www.w3.org/1999/xlink" width="200" height="200"><path d="M939.52 591.36c-122.88-120.32-248.32-161.28-384-120.32 40.96-135.68 0-261.12-122.88-384-10.24-10.24-25.6-10.24-35.84 0-10.24 10.24-10.24 25.6 0 35.84 120.32 120.32 151.04 238.08 94.72 371.2-133.12 53.76-250.88 25.6-371.2-94.72-10.24-10.24-25.6-10.24-35.84 0-10.24 10.24-10.24 25.6 0 35.84 92.16 92.16 184.32 135.68 284.16 135.68 33.28 0 66.56-5.12 99.84-15.36-40.96 135.68 0 261.12 120.32 384 5.12 5.12 12.8 7.68 17.92 7.68 7.68 0 12.8-2.56 17.92-7.68 10.24-10.24 10.24-25.6 0-35.84-120.32-120.32-151.04-238.08-94.72-371.2 133.12-53.76 250.88-25.6 371.2 94.72 5.12 5.12 12.8 7.68 17.92 7.68 7.68 0 12.8-2.56 17.92-7.68 12.8-10.24 12.8-25.6 2.56-35.84z" fill="#040000" p-id="2670"></path><path d="M314.88 478.72c5.12 5.12 12.8 7.68 17.92 7.68s12.8-2.56 17.92-7.68l128-128c10.24-10.24 10.24-25.6 0-35.84s-25.6-10.24-35.84 0l-128 128c-10.24 7.68-10.24 25.6 0 35.84zM230.4 432.64c7.68 0 12.8-2.56 17.92-7.68l179.2-179.2c10.24-10.24 10.24-25.6 0-35.84s-25.6-10.24-35.84 0l-179.2 179.2c-10.24 10.24-10.24 25.6 0 35.84 5.12 5.12 10.24 7.68 17.92 7.68zM709.12 542.72c-10.24-10.24-25.6-10.24-35.84 0l-128 128c-10.24 10.24-10.24 25.6 0 35.84 5.12 5.12 12.8 7.68 17.92 7.68s12.8-2.56 17.92-7.68l128-128c10.24-7.68 10.24-25.6 0-35.84zM775.68 593.92l-179.2 179.2c-10.24 10.24-10.24 25.6 0 35.84 5.12 5.12 12.8 7.68 17.92 7.68s12.8-2.56 17.92-7.68l179.2-179.2c10.24-10.24 10.24-25.6 0-35.84s-25.6-10.24-35.84 0z" fill="#040000" p-id="2671"></path></svg>